<?xml version="1.0" standalone="no"?>
<!DOCTYPE svg PUBLIC "-//W3C//DTD SVG 20010904//EN"
 "http://www.w3.org/TR/2001/REC-SVG-20010904/DTD/svg10.dtd">
<svg version="1.0" xmlns="http://www.w3.org/2000/svg"
 width="700.000000pt" height="700.000000pt" viewBox="0 0 700.000000 700.000000"
 preserveAspectRatio="xMidYMid meet">
<metadata>
Created by potrace 1.14, written by Peter Selinger 2001-2017
</metadata>
<g transform="translate(0.000000,700.000000) scale(0.100000,-0.100000)"
fill="#000000" stroke="none">
<path d="M3509 6996 c-2 -2 -23 -6 -47 -10 -24 -3 -46 -7 -50 -10 -4 -2 -29
-7 -57 -11 -71 -9 -339 -83 -455 -125 -84 -31 -351 -91 -510 -115 -25 -4 -52
-9 -60 -10 -8 -1 -63 -8 -123 -15 -59 -7 -106 -15 -104 -16 3 -4 83 -21 142
-30 100 -17 453 -119 530 -153 213 -95 308 -154 386 -239 48 -52 104 -153 97
-173 -2 -4 -23 18 -48 49 -106 132 -264 231 -444 277 -93 23 -256 48 -401 60
-302 24 -365 30 -475 46 -99 14 -124 18 -195 30 -33 6 -71 13 -85 15 -23 5
-257 65 -307 79 -17 6 -22 2 -27 -22 -4 -15 -9 -39 -12 -53 -3 -14 -8 -74 -10
-135 -10 -315 137 -593 410 -777 50 -33 120 -75 158 -94 37 -19 68 -36 68 -37
0 -2 -114 26 -252 63 l-253 67 -13 -41 c-38 -121 -74 -280 -79 -351 -10 -114
-9 -608 1 -680 25 -191 71 -353 134 -465 39 -70 163 -196 240 -244 78 -49 198
-91 312 -111 181 -31 615 -43 735 -20 195 38 296 102 415 264 41 55 75 99 76
98 0 -1 79 -123 174 -272 95 -148 178 -278 185 -287 10 -15 25 3 110 135 135
208 217 335 244 380 12 20 26 37 30 37 4 0 33 -35 63 -78 74 -103 139 -165
218 -206 133 -69 202 -81 480 -81 297 1 446 17 608 66 116 36 192 83 293 182
76 74 101 107 130 167 57 118 94 250 116 415 10 73 11 648 1 725 -9 70 -15 98
-39 190 -11 41 -22 84 -24 94 -3 10 -9 34 -15 51 l-11 33 -92 -25 c-158 -44
-417 -110 -417 -107 0 1 33 19 73 39 320 163 503 393 557 702 16 92 13 245 -6
325 -4 18 -8 36 -8 40 -2 17 -18 17 -77 -1 -71 -22 -255 -67 -309 -76 -19 -3
-46 -7 -60 -10 -43 -8 -87 -15 -126 -20 -22 -2 -78 -9 -126 -15 -48 -6 -114
-13 -145 -15 -32 -2 -89 -7 -128 -10 -75 -5 -172 -14 -220 -20 -16 -2 -57 -6
-90 -10 -33 -3 -67 -8 -75 -10 -8 -3 -31 -7 -50 -10 -126 -21 -256 -72 -355
-138 -66 -44 -191 -168 -200 -198 -4 -11 -11 -17 -15 -14 -13 8 18 82 57 137
102 141 350 272 696 367 129 36 277 70 367 86 51 9 47 12 -22 19 -109 13 -283
37 -350 51 -16 3 -38 7 -50 9 -127 24 -249 57 -552 150 -151 46 -347 86 -452
91 -45 3 -83 3 -85 1z m-669 -1770 c14 -2 48 -7 75 -11 83 -11 197 -45 249
-73 98 -53 128 -126 122 -296 -6 -151 -15 -191 -96 -413 -173 -468 -300 -575
-690 -575 -142 0 -356 9 -395 16 -11 2 -42 7 -70 10 -295 41 -485 196 -563
461 -12 39 -23 81 -25 95 -3 14 -8 41 -11 60 -15 81 -18 128 -23 379 -3 144
-1 267 4 271 11 12 207 46 308 55 44 4 89 9 100 11 11 2 112 7 225 10 113 4
206 7 208 9 4 4 557 -4 582 -9z m2330 0 c180 -10 318 -24 420 -43 19 -4 42 -7
50 -8 45 -5 100 -18 101 -24 9 -90 -4 -582 -16 -601 -2 -4 -6 -26 -9 -51 -16
-128 -77 -293 -140 -374 -41 -53 -53 -65 -106 -106 -61 -47 -92 -63 -180 -92
-144 -49 -263 -62 -620 -71 -98 -2 -245 16 -307 38 -172 61 -268 189 -393 521
-85 226 -99 283 -105 438 -6 144 22 221 102 275 33 22 120 58 168 68 76 17
120 23 195 29 47 4 86 9 88 10 5 5 636 -3 752 -9z m-1594 -1137 c0 -232 -3
-297 -12 -287 -21 22 -217 333 -217 344 0 5 30 56 67 113 55 85 74 105 109
121 23 10 44 16 47 14 3 -3 5 -140 6 -305z"/>
<path d="M2245 4906 c-94 -29 -165 -90 -213 -181 -24 -44 -27 -61 -27 -145 0
-112 19 -160 92 -236 234 -240 641 -19 570 311 -11 52 -22 63 -44 43 -17 -15
-50 -22 -99 -19 -30 1 -83 58 -90 98 -4 23 0 45 14 74 l20 40 -26 10 c-41 16
-152 18 -197 5z"/>
<path d="M4745 4912 c-11 -2 -31 -8 -44 -13 -23 -9 -23 -10 -6 -29 10 -11 20
-41 23 -68 4 -44 1 -51 -32 -85 -19 -20 -46 -38 -58 -38 -50 -4 -74 1 -98 20
l-26 19 -13 -43 c-37 -126 12 -282 113 -359 67 -51 124 -70 211 -70 101 -1
178 32 246 104 197 206 56 555 -228 565 -38 1 -77 0 -88 -3z"/>
<path d="M6100 4298 c-29 -71 -255 -579 -296 -668 -63 -136 -326 -663 -402
-805 -107 -202 -263 -478 -301 -535 -9 -14 -22 -36 -29 -50 -7 -14 -20 -37
-30 -52 -9 -15 -46 -74 -81 -130 -156 -249 -381 -574 -522 -754 -35 -45 -75
-96 -89 -114 -14 -18 -30 -38 -37 -45 -6 -6 -35 -41 -64 -76 -175 -210 -421
-460 -604 -614 -33 -27 -62 -52 -65 -55 -17 -18 -151 -119 -243 -183 -59 -42
-104 -78 -100 -80 20 -12 264 -82 320 -92 16 -2 51 -9 78 -14 138 -26 383 -35
530 -18 374 42 732 256 996 598 148 190 238 346 389 674 98 210 275 802 334
1115 39 208 78 427 91 515 22 151 31 216 40 290 3 28 10 84 15 125 5 41 11 98
14 125 10 94 17 160 21 195 2 19 7 71 10 115 3 44 8 103 10 130 10 106 14 164
20 285 4 69 9 128 12 133 2 4 2 7 -2 7 -3 0 -10 -10 -15 -22z"/>
<path d="M937 3928 c-11 -54 -14 -306 -4 -418 10 -108 16 -146 39 -230 91
-345 303 -546 658 -623 75 -16 133 -21 280 -21 191 -1 251 4 405 30 50 9 104
18 120 21 57 9 350 83 430 108 44 14 123 39 175 56 52 16 104 34 115 38 11 5
65 25 120 45 135 49 505 200 505 206 0 3 -89 5 -198 5 -183 0 -375 8 -475 21
-50 6 -239 33 -282 40 -27 4 -92 17 -155 29 -14 3 -47 10 -74 15 -90 18 -314
79 -443 121 -383 124 -870 355 -1184 562 -26 17 -27 17 -32 -5z"/>
<path d="M5239 3177 c-223 -208 -299 -276 -466 -419 -103 -88 -197 -168 -208
-177 -109 -89 -290 -230 -425 -330 -91 -67 -172 -127 -180 -134 -64 -52 -610
-410 -728 -477 -15 -9 -59 -34 -98 -58 -156 -91 -446 -246 -627 -336 -217
-106 -227 -110 -427 -196 -241 -102 -251 -106 -369 -151 l-114 -43 44 -39 c68
-59 243 -174 342 -223 286 -144 602 -182 892 -109 33 8 67 17 75 19 44 11 212
81 283 118 242 126 551 379 792 648 106 118 123 139 215 255 329 416 654 927
960 1510 35 66 72 135 83 153 10 18 18 35 16 37 -2 2 -29 -20 -60 -48z"/>
<path d="M4695 3136 c-196 -90 -900 -339 -1315 -465 -203 -62 -597 -172 -660
-185 -14 -3 -54 -13 -90 -22 -68 -17 -178 -42 -220 -50 -14 -3 -33 -7 -42 -10
-9 -3 -27 -7 -40 -9 -23 -5 -174 -36 -193 -40 -5 -1 -28 -5 -50 -9 -22 -4 -60
-11 -85 -16 -25 -5 -65 -12 -90 -16 -24 -3 -47 -7 -50 -9 -3 -1 -25 -6 -50 -9
-25 -3 -54 -8 -66 -10 -12 -2 -45 -7 -75 -11 -30 -4 -56 -8 -59 -10 -3 -1 -32
-6 -65 -9 -33 -4 -71 -9 -85 -11 -25 -4 -256 -31 -342 -40 -25 -2 -86 -7 -135
-11 -48 -3 -90 -8 -93 -11 -8 -7 72 -158 136 -254 167 -253 417 -415 689 -446
120 -14 328 -6 415 17 19 5 49 11 67 13 56 9 216 59 344 108 186 72 364 163
657 335 117 68 444 293 622 428 251 190 659 529 855 710 64 59 66 63 20 42z"/>
</g>
</svg>
