<?xml version="1.0" encoding="UTF-8" standalone="no"?>
<svg
   height="50.640034"
   viewBox="0 0 37.851002 50.640035"
   width="37.851002"
   version="1.1"
   id="svg7"
   xmlns="http://www.w3.org/2000/svg"
   xmlns:svg="http://www.w3.org/2000/svg">
  <defs
     id="defs7" />
  <g
     fill-rule="evenodd"
     id="g7">
    <path
       d="M 27.93,96.146 Q 12.824,102.26 0,103.155 5.719,116.236 27.93,96.146"
       transform="translate(0,-68.329)"
       id="path1"
       style="fill:#1dce79;fill-opacity:1" />
    <path
       d="m 44.652,93.882 a 77.328,77.328 0 0 1 -26.888,17.3 q 12.552,10.683 26.888,-17.3"
       transform="translate(-12.624,-66.72)"
       id="path2"
       style="fill:#1dce79;fill-opacity:1" />
    <path
       d="m 79.435,66.683 q -9.9,23.335 -20.921,30.329 18.852,6.671 20.921,-30.329"
       transform="translate(-41.584,-47.391)"
       id="path3"
       style="fill:#1dce79;fill-opacity:1" />
    <path
       d="m 1.114,76.174 q -1.57,15.54 20.669,5.861 A 35.05,35.05 0 0 1 1.114,76.174"
       transform="translate(-0.718,-54.136)"
       id="path4"
       style="fill:#1dce79;fill-opacity:1" />
    <path
       d="m 15.978,12.794 c 1.717,-0.02 7.139,-0.435 7.783,1.446 a 5.6,5.6 0 0 1 -0.1,3.049 27.94,27.94 0 0 1 -1.263,3.179 6.975,6.975 0 0 1 -0.477,0.786 c -1.27,1.789 -3.362,1.5 -5.376,1.441 -4.616,-0.131 -5.974,-1.893 -6.229,-6.386 l 0.008,-2.958 a 27.436,27.436 0 0 1 5.658,-0.556 m 7.307,8.115 2.7,4.2 2.7,-4.2 0.619,0.874 c 1.524,2.149 3.839,1.892 6.15,1.827 a 8.6,8.6 0 0 0 4.547,-1.128 q 0.55,-0.489 1.1,-1.015 l 0.058,-0.055 a 9.188,9.188 0 0 0 1.426,-5.079 v -1.08 c -0.1,-3.1 0.148,-2.441 -0.731,-5.548 -0.686,0.212 -2.795,0.73 -3.843,1.018 a 13.365,13.365 0 0 0 2.229,-1.287 6.489,6.489 0 0 0 2.331,-6.92 c -7,2.236 -11.476,-0.008 -14.326,4.242 Q 28.703,3.772 36.795,2.276 C 31.339,1.725 30.388,0.776 27.509,0.221 A 10.68,10.68 0 0 0 25.988,0 10.689,10.689 0 0 0 24.468,0.222 c -2.879,0.55 -3.83,1.5 -9.286,2.055 q 8.092,1.5 8.546,4.483 C 20.877,2.508 16.4,4.752 9.4,2.516 a 6.487,6.487 0 0 0 2.331,6.92 13.351,13.351 0 0 0 2.229,1.287 C 12.912,10.436 10.803,9.918 10.117,9.705 9.237,12.812 9.485,12.157 9.386,15.253 v 1.08 a 9.188,9.188 0 0 0 1.425,5.079 l 0.058,0.055 q 0.552,0.526 1.1,1.015 a 8.6,8.6 0 0 0 4.546,1.128 c 2.311,0.066 4.625,0.323 6.15,-1.827 l 0.62,-0.874 m 1.792,-1.491 -0.793,1.233 1.704,2.649 v -4.451 a 1.018,1.018 0 0 0 -0.785,0.372 z M 36,12.794 c -1.717,-0.02 -7.139,-0.435 -7.783,1.446 a 5.6,5.6 0 0 0 0.1,3.049 27.832,27.832 0 0 0 1.262,3.179 6.973,6.973 0 0 0 0.477,0.786 c 1.27,1.789 3.362,1.5 5.377,1.441 4.616,-0.131 5.973,-1.893 6.229,-6.386 L 41.654,13.351 A 27.428,27.428 0 0 0 36,12.794"
       transform="translate(-6.509)"
       id="path5"
       style="fill:#1dce79;fill-opacity:1;stroke:none;stroke-opacity:1" />
    <path
       d="M 90.052,53.492 A 2.452,2.452 0 1 0 91.3,52.247 0.883,0.883 0 1 1 90.054,53.492"
       transform="translate(-63.848,-36.981)"
       id="path6"
       style="fill:#1dce79;fill-opacity:1" />
    <path
       d="m 32.759,54.489 a 2.447,2.447 0 0 0 -0.211,-1 0.883,0.883 0 1 1 -1.248,-1.242 2.453,2.453 0 1 0 1.456,2.242"
       transform="translate(-19.795,-36.981)"
       id="path7"
       style="fill:#1dce79;fill-opacity:1" />
  </g>
</svg>
